<svg xmlns="http://www.w3.org/2000/svg" viewBox="0 0 500 500"><g id="freepik--background-simple--inject-83"><path d="M241.27,70s-65.36,3.31-107.56,58.66-43.36,131-45.93,192.23,33.34,107.61,85.94,113.72,66.79-40.91,125.81-67.38,78.7-24.57,114-78.92,10.61-137.89-53.4-180.74S241.27,70,241.27,70Z" style="fill:#0052D4"></path><path d="M241.27,70s-65.36,3.31-107.56,58.66-43.36,131-45.93,192.23,33.34,107.61,85.94,113.72,66.79-40.91,125.81-67.38,78.7-24.57,114-78.92,10.61-137.89-53.4-180.74S241.27,70,241.27,70Z" style="fill:#fff;opacity:0.7000000000000001"></path></g><g id="freepik--Screen--inject-83"><rect x="187.65" y="98.2" width="158.77" height="282.52" rx="10.64" style="fill:#263238;stroke:#263238;stroke-linecap:round;stroke-linejoin:round"></rect><path d="M231.38,114.28H210.52a3.17,3.17,0,0,1-3.17-3.17h0a3.17,3.17,0,0,1,3.17-3.17h20.86a3.17,3.17,0,0,1,3.16,3.17h0A3.17,3.17,0,0,1,231.38,114.28Z" style="fill:none;stroke:#fff;stroke-linecap:round;stroke-miterlimit:10"></path><path d="M262.1,114.28H241.25a3.17,3.17,0,0,1-3.17-3.17h0a3.17,3.17,0,0,1,3.17-3.17H262.1a3.17,3.17,0,0,1,3.17,3.17h0A3.17,3.17,0,0,1,262.1,114.28Z" style="fill:none;stroke:#fff;stroke-linecap:round;stroke-miterlimit:10"></path><path d="M292.83,114.28H272a3.16,3.16,0,0,1-3.16-3.17h0a3.16,3.16,0,0,1,3.16-3.17h20.86a3.16,3.16,0,0,1,3.16,3.17h0A3.16,3.16,0,0,1,292.83,114.28Z" style="fill:none;stroke:#fff;stroke-linecap:round;stroke-miterlimit:10"></path><path d="M323.55,114.28H302.7a3.17,3.17,0,0,1-3.17-3.17h0a3.17,3.17,0,0,1,3.17-3.17h20.85a3.17,3.17,0,0,1,3.17,3.17h0A3.17,3.17,0,0,1,323.55,114.28Z" style="fill:none;stroke:#fff;stroke-linecap:round;stroke-miterlimit:10"></path><polygon points="245.81 246.91 245.81 237.65 237.78 242.28 245.81 246.91" style="fill:#fff"></polygon><rect x="235.11" y="237.42" width="1.46" height="9.47" style="fill:#fff"></rect><polygon points="288.27 246.91 296.29 242.28 288.27 237.65 288.27 246.91" style="fill:#fff"></polygon><rect x="297.5" y="237.42" width="1.46" height="9.47" style="fill:#fff"></rect><path d="M267.51,228.82a12.34,12.34,0,1,0,12.34,12.34A12.33,12.33,0,0,0,267.51,228.82Zm-1.75,18.84h-3.67v-13h3.67Zm7.17,0h-3.67v-13h3.67Z" style="fill:#fff"></path><circle cx="267.04" cy="162.22" r="31.23" transform="translate(-29.15 62.75) rotate(-12.71)" style="fill:#0052D4"></circle><path d="M280.76,141.13a2,2,0,0,0-.81-1.62,2,2,0,0,0-1.79-.32l-21.26,6.3a2,2,0,0,0-1.45,1.94v24.34a6.25,6.25,0,1,0,4,6.37h.09V159.57l17.21-5.1v10.75a6.15,6.15,0,0,0-2.2-.42,6.26,6.26,0,1,0,6.26,6.26s0-.07,0-.1Zm-4.05,9.12-17.21,5.1v-6.41l17.21-5.1Z" style="fill:#263238"></path><line x1="252.2" y1="206.65" x2="280.54" y2="206.65" style="fill:none;stroke:#fff;stroke-linecap:round;stroke-miterlimit:10;stroke-width:2px"></line><line x1="244.87" y1="212.32" x2="287.87" y2="212.32" style="fill:none;stroke:#fff;stroke-linecap:round;stroke-miterlimit:10;stroke-width:2px"></line><circle cx="321.11" cy="281.54" r="6.7" style="fill:#fff"></circle><polygon points="318.24 286.28 326.26 281.64 318.24 277.01 318.24 286.28" style="fill:#263238"></polygon><line x1="206.27" y1="281.99" x2="235.27" y2="281.99" style="fill:none;stroke:#fff;stroke-linecap:round;stroke-miterlimit:10;stroke-width:2px"></line><line x1="206.27" y1="276.49" x2="226.27" y2="276.49" style="fill:none;stroke:#fff;stroke-linecap:round;stroke-miterlimit:10;stroke-width:2px"></line><line x1="243.77" y1="282.81" x2="308.77" y2="282.81" style="fill:none;stroke:#fff;stroke-linecap:round;stroke-miterlimit:10"></line><circle cx="321.11" cy="301.54" r="6.7" style="fill:#fff"></circle><polygon points="318.24 306.28 326.26 301.64 318.24 297.01 318.24 306.28" style="fill:#263238"></polygon><line x1="206.27" y1="301.99" x2="235.27" y2="301.99" style="fill:none;stroke:#fff;stroke-linecap:round;stroke-miterlimit:10;stroke-width:2px"></line><line x1="206.27" y1="296.49" x2="226.27" y2="296.49" style="fill:none;stroke:#fff;stroke-linecap:round;stroke-miterlimit:10;stroke-width:2px"></line><line x1="243.77" y1="302.81" x2="308.77" y2="302.81" style="fill:none;stroke:#fff;stroke-linecap:round;stroke-miterlimit:10"></line><circle cx="321.11" cy="321.54" r="6.7" style="fill:#fff"></circle><polygon points="318.24 326.28 326.26 321.64 318.24 317.01 318.24 326.28" style="fill:#263238"></polygon><line x1="206.27" y1="321.99" x2="235.27" y2="321.99" style="fill:none;stroke:#fff;stroke-linecap:round;stroke-miterlimit:10;stroke-width:2px"></line><line x1="206.27" y1="316.49" x2="226.27" y2="316.49" style="fill:none;stroke:#fff;stroke-linecap:round;stroke-miterlimit:10;stroke-width:2px"></line><line x1="243.77" y1="322.81" x2="308.77" y2="322.81" style="fill:none;stroke:#fff;stroke-linecap:round;stroke-miterlimit:10"></line><circle cx="321.11" cy="341.54" r="6.7" style="fill:#fff"></circle><polygon points="318.24 346.28 326.26 341.64 318.24 337.01 318.24 346.28" style="fill:#263238"></polygon><line x1="206.27" y1="341.99" x2="235.27" y2="341.99" style="fill:none;stroke:#fff;stroke-linecap:round;stroke-miterlimit:10;stroke-width:2px"></line><line x1="206.27" y1="336.49" x2="226.27" y2="336.49" style="fill:none;stroke:#fff;stroke-linecap:round;stroke-miterlimit:10;stroke-width:2px"></line><line x1="243.77" y1="342.81" x2="308.77" y2="342.81" style="fill:none;stroke:#fff;stroke-linecap:round;stroke-miterlimit:10"></line><circle cx="321.11" cy="361.54" r="6.7" style="fill:#fff"></circle><polygon points="318.24 366.28 326.26 361.64 318.24 357.01 318.24 366.28" style="fill:#263238"></polygon><line x1="206.27" y1="361.99" x2="235.27" y2="361.99" style="fill:none;stroke:#fff;stroke-linecap:round;stroke-miterlimit:10;stroke-width:2px"></line><line x1="206.27" y1="356.49" x2="226.27" y2="356.49" style="fill:none;stroke:#fff;stroke-linecap:round;stroke-miterlimit:10;stroke-width:2px"></line><line x1="243.77" y1="362.81" x2="308.77" y2="362.81" style="fill:none;stroke:#fff;stroke-linecap:round;stroke-miterlimit:10"></line><rect x="219.84" y="123.41" width="94.39" height="99.87" style="fill:none;stroke:#0052D4;stroke-miterlimit:10"></rect><line x1="206.86" y1="265.94" x2="327.22" y2="265.94" style="fill:none;stroke:#0052D4;stroke-miterlimit:10"></line></g></svg>